<svg width="400" height="400" xml:space="preserve" xmlns="http://www.w3.org/2000/svg">
    <path style="fill:#000;stroke-width:.26458437;stroke-dasharray:none" d="M115.327-3.908c-.162-.448-.29-.68-.49-.893-.232-.246-.376-.291-.44-.137a.598.598 0 0 0 .009.354c.018.057.026.11.019.117-.007.008-.053-.014-.102-.048a1.745 1.745 0 0 0-.129-.082 1.459 1.459 0 0 1-.155-.115c-.273-.228-.449-.51-.5-.803l-.029-.16-.049.059c-.072.088-.168.29-.204.432a2.1 2.1 0 0 0-.043.33c-.013.238-.013.238-.146.015a3.569 3.569 0 0 1-.43-1.353l-.01-.122-.078.01c-.168.02-.432.205-.571.4-.103.144-.146.195-.157.184a7.92 7.92 0 0 1-.068-.632c-.014-.172-.025-.191-.082-.138a1.55 1.55 0 0 0-.126.15.517.517 0 0 1-.097.112c-.044 0 .007-.24.082-.39.12-.237.389-.494.669-.64.183-.095.34-.136.564-.146.286-.014.362.033.187.116a1.976 1.976 0 0 0-.852.827c.004.004.031-.012.06-.034.083-.062.272-.152.41-.195a.894.894 0 0 1 .31-.038c.104 0 .202.005.218.01.04.018.02.053-.048.086-.034.016-.053.034-.045.042a2.2 2.2 0 0 0 .371.198c.165.058.382.087.563.076.295-.018.605-.105 1.174-.33.323-.128.614-.22.83-.263.212-.042.332-.088.395-.15.053-.054.056-.063.056-.17 0-.154-.04-.254-.18-.442-.181-.246-.352-.41-.666-.643-.29-.214-.405-.354-.483-.585a.758.758 0 0 1-.002-.436.7.7 0 0 1 .173-.338c.099-.116.193-.193.351-.287a3.543 3.543 0 0 1 1.012-.356c.518-.068 1.239.135 1.572.442.175.16.219.304.206.678-.007.204-.014.25-.052.35-.06.155-.157.307-.426.664-.329.437-.45.554-.788.763-.253.156-.296.226-.22.36.137.243.626.317.966.146.119-.06.158-.1.164-.17.01-.108-.003-.147-.076-.236l-.074-.091h.078c.07 0 .4.046.542.075.032.007.054.005.054-.005 0-.033-.137-.187-.211-.24l-.076-.052.052-.005c.058-.005.221.055.31.115.08.054.128.158.113.246-.026.155-.079.227-.166.227-.05 0-.057.005-.047.029a.612.612 0 0 1 .034.283c-.012.16-.023.17-.149.14a3.304 3.304 0 0 0-.502-.074h-.076l-.01.143c-.024.352-.18.66-.428.85-.032.024-.065.04-.073.034a.453.453 0 0 1-.028-.15.495.495 0 0 0-.022-.14.337.337 0 0 0-.042.104c-.078.25-.271.56-.488.78-.127.129-.259.234-.293.234-.015 0-.018-.051-.013-.213a1.082 1.082 0 0 0-.004-.214.968.968 0 0 0-.195.136c-.248.217-.505.658-.675 1.16-.06.178-.1.274-.116.277-.019.003-.048-.058-.113-.238zm-.012-1.02c.012-.086.064-.183.099-.183.037 0 .058.038.08.147l.021.104.046-.07c.047-.07.066-.076.144-.043.02.009.048-.017.109-.1.105-.145.27-.313.373-.38a.81.81 0 0 1 .31-.11c.053-.01.09-.036.208-.153a.847.847 0 0 0 .204-.27c.068-.142.107-.304.108-.446v-.096l-.187.01c-.175.009-.21.017-.53.124-.488.164-.52.17-.974.176-.212.003-.42.009-.46.013-.04.004-.181.049-.312.1a3.076 3.076 0 0 1-.751.198l-.135.012.01.043c.015.066.097.24.152.319.104.152.335.333.463.364.04.01.043.007.054-.068.011-.083.067-.18.11-.195.058-.018.216.06.314.156l.096.093.05-.094c.097-.182.136-.184.219-.01.055.117.14.368.14.415 0 .013.007.023.015.023s.019-.035.025-.078zm-10.174.299c-.017-.017-.013-.48.006-.704a4.82 4.82 0 0 1 .365-1.527c.056-.135.28-.603.5-1.04.453-.896.533-1.068.702-1.497.382-.967.564-1.813.659-3.07.023-.31.052-1.806.034-1.79-.008.008-.33.745-.456 1.044-.18.43-.346.68-.45.68-.066 0-.085-.064-.106-.36a3.625 3.625 0 0 0-.505-1.61c-.183-.32-.32-.514-.762-1.092-.648-.845-1.033-1.471-1.033-1.682 0-.2.144-.281.887-.507.42-.128.634-.19 1.035-.296.757-.203.949-.291 1.543-.71.462-.324.632-.425.899-.533.453-.184.846-.196 1.145-.036.204.109.393.296.67.662.338.45.544.584.961.63.087.01.503.025.923.03l.765.014.093.046c.116.056.171.127.21.269.03.107.04.2.022.2a.525.525 0 0 1-.084-.05 1.933 1.933 0 0 0-.747-.27l-.088-.01.087.076c.192.17.39.5.354.592-.013.034-.048.03-.264-.027a.926.926 0 0 0-.358-.045c-.11.004-.177.014-.195.029-.039.032-.018.046.149.102.435.146.95.54 1.2.916.14.21.139.244-.005.136a1.436 1.436 0 0 0-.573-.25c-.01 0 .038.036.106.08.15.095.262.22.337.372.06.124.089.238.06.238a.215.215 0 0 1-.072-.047c-.253-.222-.773-.448-1.228-.536-.13-.025-.74-.056-.722-.037.004.005.072.024.151.043.167.04.353.128.424.202.048.05.078.12.06.14a.546.546 0 0 1-.146-.014 3.813 3.813 0 0 0-.522-.021c-.398 0-.527.015-.747.083l-.099.03.238.013c.29.017.475.058.652.145.202.1.227.148.06.113-.204-.043-.543.013-.805.132-.199.09-.468.278-.664.463-.111.106-.316.34-.305.352a.323.323 0 0 0 .105-.04c.155-.08.284-.128.458-.172.256-.066.253-.065.253-.036 0 .062-.555.763-.903 1.14a1.706 1.706 0 0 0-.14.16 7.14 7.14 0 0 0 .846-.573c.186-.151.196-.16.478-.427.12-.115.263-.242.317-.284.177-.137.38-.21.658-.233.068-.005.123-.015.123-.022 0-.023-.172-.086-.382-.14a1.362 1.362 0 0 1-.229-.07c-.022-.023.063-.075.184-.114.07-.022.15-.028.353-.028.237 0 .279.004.427.045.191.053.424.162.55.256.049.037.09.065.094.062a1.818 1.818 0 0 0-.127-.306 1.856 1.856 0 0 0-.13-.205.991.991 0 0 1-.083-.126c0-.036.068-.02.209.05.186.094.36.252.487.443.14.209.251.509.268.716a.664.664 0 0 0 .02.137c.018.033.053-.24.06-.472.004-.113.011-.208.015-.213.018-.017.09.073.136.168.079.165.107.306.108.536.002.319-.06.578-.186.777-.027.042-.043.077-.035.077a.983.983 0 0 0 .144-.104c.13-.106.254-.24.31-.335.017-.03.037-.054.045-.054.046 0-.087.316-.21.5-.161.24-.361.415-.566.494-.122.046-.139.063-.079.08.157.042.428.024.614-.04.08-.028.105-.027.105.002 0 .019-.257.179-.368.229a2.603 2.603 0 0 1-.484.149c-.095.018-.102.022-.074.043.05.036.227.085.385.106.194.026.203.034.122.105a3.698 3.698 0 0 1-.443.313c-.643.377-1.035.632-1.314.854a4.63 4.63 0 0 0-1.421 1.925 3.495 3.495 0 0 0-.081.212c0 .005.069-.127.153-.293a4.04 4.04 0 0 1 .435-.722c.226-.307.58-.638.814-.758.11-.056.1-.011-.027.127a4.849 4.849 0 0 0-1.162 2.109 6.169 6.169 0 0 0-.125.733.723.723 0 0 1-.023.155c-.021.034-.33-.218-.616-.502-.633-.63-1.11-1.37-1.481-2.3-.107-.265-.25-.692-.25-.742 0-.097-.049-.024-.155.233-.13.313-.19.603-.23 1.11a31.782 31.782 0 0 0-.058 1.654c0 .137-.007.234-.016.234-.026 0-.17-.19-.242-.317a2.382 2.382 0 0 1-.194-.492c-.007-.034-.017-.062-.022-.062a.358.358 0 0 0-.05.103c-.146.38-.308.732-.713 1.548-.391.785-.509 1.036-.64 1.362-.13.329-.279.78-.327.998a.585.585 0 0 1-.05.166zm6.351-8.952a.723.723 0 0 1-.198-.342c-.004-.013-.047-.01-.158.014a1.417 1.417 0 0 0-.176.046c-.015.008.016.027.092.056.127.048.237.114.35.207.138.114.188.124.09.02zm.947.038c.078-.016.151-.034.162-.041.015-.01-.002-.04-.058-.105a1.121 1.121 0 0 0-.083-.091.428.428 0 0 0-.04.072c-.02.04-.064.1-.1.132-.067.06-.079.078-.044.067a4 4 0 0 1 .163-.034zm-.282-.435c0-.05-.064-.078-.195-.09a.65.65 0 0 0-.15-.001c-.02.012-.002.06.03.086.031.025.315.03.315.004zm-4.66-.936c.464-1.076.71-2.005.76-2.874.042-.703.211-1.012.668-1.221.121-.056.39-.123.503-.127.05-.002.042-.005-.038-.017a1.641 1.641 0 0 0-.497.027c-.416.099-.744.537-.824 1.1-.008.065-.027.242-.041.395-.056.61-.161 1.16-.361 1.887a30.155 30.155 0 0 1-.386 1.288c.002.022.095-.175.217-.458zm3.941 8.032c-.023-.057-.012-.305.018-.393.067-.194.268-.423.467-.534.129-.071.318-.138.457-.16.228-.038.627-.013.61.037a.677.677 0 0 1-.185.054c-.382.078-.694.223-.93.433a1.852 1.852 0 0 0-.339.457.92.92 0 0 1-.078.135c-.005 0-.013-.013-.02-.03zm5.996-4.744c-.062-.07-.244-.265-.403-.434-.59-.624-.81-.935-.957-1.342-.091-.255-.123-.652-.076-.97.025-.175.1-.407.17-.53.074-.13.203-.275.244-.275.02 0 .03.008.025.02-.055.13-.142.36-.151.399l-.011.049.045-.058c.138-.174.427-.377.538-.377.058 0 .067.024.021.055-.054.035-.278.322-.252.322a.645.645 0 0 0 .111-.031c.217-.076.556-.086.693-.02.039.018.147.06.242.093.094.033.2.074.235.092.035.018.07.03.08.027.008-.003-.011-.058-.044-.123a.725.725 0 0 0-.34-.326.547.547 0 0 1-.111-.068.38.38 0 0 1 .119.003l.118.01-.03-.033c-.05-.055-.245-.144-.38-.174-.067-.015-.123-.035-.123-.045 0-.02.123-.14.223-.22.036-.028.059-.057.051-.065a1.055 1.055 0 0 0-.23-.014c-.201 0-.226.003-.369.053a3.21 3.21 0 0 1-.16.053c-.023 0 .002-.053.067-.14a1.33 1.33 0 0 1 .589-.427c.065-.024.074-.032.05-.042-.057-.022-.33-.015-.461.012-.145.03-.384.133-.503.217-.043.03-.083.052-.089.046a1.74 1.74 0 0 1-.073-.176 4.177 4.177 0 0 0-.17-.371c-.402-.772-1.008-1.254-1.853-1.475a3.391 3.391 0 0 0-.7-.106c-.055 0-.099-.006-.099-.014 0-.007.058-.023.128-.035.355-.062.625-.213 1.075-.604.257-.223.671-.554.785-.627a.814.814 0 0 1 .851-.05c.124.063.287.177.64.446.567.434.807.558 1.677.867.665.236 1.203.467 1.337.574.21.167.182.325-.166.977-.167.31-.282.507-.58.986-.356.575-.478.887-.544 1.395-.01.082-.02.4-.022.715-.004.614-.01.665-.08.619-.058-.04-.135-.2-.287-.604-.213-.561-.322-.836-.332-.836-.016 0-.125.603-.188 1.03a35.51 35.51 0 0 0-.174 1.437 1.447 1.447 0 0 1-.032.242c-.006 0-.061-.057-.124-.127zm.011-2.205c.032 0-.008-.035-.104-.09l-.078-.044v.06c0 .07-.05.22-.097.286-.066.093-.033.072.111-.07a.906.906 0 0 1 .168-.142zm-.426-.166c.037-.018.055-.097.027-.115a.471.471 0 0 0-.137-.014h-.116l-.036.064c-.056.1-.052.102.1.09a.789.789 0 0 0 .162-.025zm.827-1.43-.1-.37c-.009-.031-.07-.024-.088.01-.012.022-.01.059.007.123.032.12.252.61.268.594a4.084 4.084 0 0 0-.087-.357zm-.178-.78a11.916 11.916 0 0 1-.06-.26c-.27-1.201-.61-2.01-1.003-2.378-.283-.266-.651-.366-.988-.266l-.07.02.139.013c.279.025.545.13.742.295.364.302.657.97.954 2.172l.103.414.049.007c.119.016.142.013.134-.017z" transform="matrix(3.77951 0 0 3.77951 -223.903 93.872)"/>
    <path style="fill:none;stroke:#000;stroke-width:.26458437;stroke-dasharray:none" d="M121.276-11.608a9.118 9.118 0 1 1-18.236 0 9.118 9.118 0 0 1 18.236 0z" transform="matrix(3.77951 0 0 3.77951 -223.903 93.872)"/>
    <path style="fill:none;stroke:#000;stroke-width:.26458437;stroke-dasharray:none" d="M112.158-2.347V8.36" transform="matrix(3.77951 0 0 3.77951 -223.903 93.872)"/>
    <path style="fill:none;stroke:#000;stroke-width:.26458437;stroke-dasharray:none" d="M112.158 8.361H59.241" transform="matrix(3.77951 0 0 3.77951 -223.903 93.872)"/>
    <path style="fill:none;stroke:#000;stroke-width:.26458437;stroke-dasharray:none" d="M112.158 8.361h52.917" transform="matrix(3.77951 0 0 3.77951 -223.903 93.872)"/>
    <path style="fill:none;stroke:#000;stroke-width:.26458437;stroke-dasharray:none" d="M112.158 54.663H59.241" transform="matrix(3.77951 0 0 3.77951 -223.903 93.872)"/>
    <path style="fill:none;stroke:#000;stroke-width:.26458437;stroke-dasharray:none" d="M112.158 54.663h52.917" transform="matrix(3.77951 0 0 3.77951 -223.903 93.872)"/>
    <text xml:space="preserve" style="font-style:normal;font-variant:normal;font-weight:400;font-stretch:normal;font-size:4.58613px;font-family:'Courier New';fill:#fff;stroke:#000;stroke-width:.264584;stroke-dasharray:none" x="83.172" y="19.146" transform="matrix(3.77951 0 0 3.77951 -223.903 93.872)"><tspan style="font-style:normal;font-variant:normal;font-weight:400;font-stretch:normal;font-size:4.58613px;font-family:'Courier New';stroke-width:.264584;stroke-dasharray:none" x="83.172" y="19.146">Diablo the wonder dog</tspan></text>
    <text xml:space="preserve" style="font-style:normal;font-variant:normal;font-weight:400;font-stretch:normal;font-size:4.58613px;font-family:'Courier New';fill:#fff;stroke:#000;stroke-width:.264584;stroke-dasharray:none" x="61.155" y="27.981" transform="matrix(3.77951 0 0 3.77951 -223.903 93.872)"><tspan style="font-size:4.58613px;stroke-width:.264584;stroke-dasharray:none" x="61.155" y="27.981">Data, applied science and engineering</tspan></text>
    <text xml:space="preserve" style="font-style:normal;font-variant:normal;font-weight:400;font-stretch:normal;font-size:4.58613px;font-family:'Courier New';fill:#fff;stroke:#000;stroke-width:.264584;stroke-dasharray:none" x="59.937" y="36.816" transform="matrix(3.77951 0 0 3.77951 -223.903 93.872)"><tspan style="font-size:4.58613px;stroke-width:.264584;stroke-dasharray:none" x="59.937" y="36.816">All the things that I find interesting</tspan></text>
    <text xml:space="preserve" style="font-style:normal;font-variant:normal;font-weight:400;font-stretch:normal;font-size:4.58613px;font-family:'Courier New';fill:#fff;stroke:#000;stroke-width:.264584;stroke-dasharray:none" x="90.172" y="45.604" transform="matrix(3.77951 0 0 3.77951 -223.903 93.872)"><tspan style="font-size:4.58613px;stroke-width:.264584;stroke-dasharray:none" x="90.172" y="45.604">By Steven Fowler</tspan></text>
</svg>
