<?xml version="1.0" encoding="UTF-8" standalone="no"?>
<!-- Created with Inkscape (http://www.inkscape.org/) -->

<svg
   width="377.67572"
   height="339.65387"
   viewBox="0 0 377.67572 339.65387"
   version="1.1"
   id="svg1"
   xmlns="http://www.w3.org/2000/svg"
   xmlns:svg="http://www.w3.org/2000/svg">
  <defs
     id="defs1" />
  <g
     id="layer2"
     transform="translate(-810.37323,-41.100082)">
    <g
       id="g23-5-2"
       transform="translate(778.50813)"
       style="display:inline">
      <g
         id="g21-4-7"
         style="fill:#000000;fill-opacity:1">
        <path
           style="fill:#000000;fill-opacity:1;stroke:#000000;stroke-width:2.4378"
           id="path4-3-7"
           d="m 50.912007,155.86055 c 2.134336,-0.15883 4.270574,-0.29391 6.40301,-0.4765 3.498576,-0.29957 6.990705,-0.67158 10.489386,-0.96992 9.223023,-0.78645 21.149647,-1.66749 30.202724,-2.24688 17.130393,-1.09635 19.581613,-1.1305 36.739563,-1.91624 27.08454,-1.09967 54.19147,-1.46066 81.29535,-1.64437 28.43416,-0.41055 56.87287,-0.28606 85.3084,-0.52642 24.07227,-0.14078 48.15622,-0.37148 72.22448,0.2263 9.27325,0.4037 18.53152,1.00768 27.78491,1.7242 1.34112,0.10655 2.68224,0.21311 4.02336,0.31967 0,0 -11.39603,-8.40901 -11.39603,-8.40901 v 0 c -1.31641,-0.0901 -2.63281,-0.1802 -3.94922,-0.2703 -9.101,-0.69804 -18.21311,-1.35803 -27.34843,-1.28209 -23.49435,0.3589 -46.98375,1.16436 -70.48472,1.05309 -28.75498,0.0282 -57.50904,-0.11411 -86.26381,-0.15882 -26.64953,0.35471 -53.27982,1.2882 -79.89494,2.70779 -18.07479,0.84949 -36.151052,1.65414 -54.227418,2.468 -10.045663,0.45229 -15.733467,0.82252 -25.470604,1.01804 -2.319144,0.0466 -4.639217,0.008 -6.958825,0.0117 z" />
        <path
           style="fill:#000000;fill-opacity:1;stroke:#000000;stroke-width:2.4378"
           id="path6-1-9"
           d="m 140.95388,43.082189 c -0.083,12.020736 -1.2042,24.029208 -2.25433,35.99754 -1.99343,25.450561 -4.89645,50.816551 -7.22084,76.236111 -1.26404,14.87116 -2.58508,29.78445 -2.04431,44.7245 0.3471,9.58942 0.97265,14.63336 1.88692,24.28362 2.06884,19.92661 4.69604,39.79013 6.61693,59.73196 0.88157,10.36928 1.28097,20.7718 1.84024,31.16224 0.23643,7.56851 1.18031,15.07933 1.89324,22.60937 0.77195,6.32455 1.51116,12.64414 1.88399,19.00673 -0.0118,4.38305 0.54614,8.70111 1.34578,12.99743 0.35618,1.5712 0.16856,0.8277 0.55298,2.23297 0,0 13.44614,6.35097 13.44614,6.35097 v 0 c -0.47272,-1.36942 -0.23027,-0.65178 -0.72465,-2.15382 -0.95106,-4.27949 -1.77305,-8.56739 -1.76841,-12.97766 -0.40579,-6.38623 -1.03713,-12.74714 -1.91038,-19.08771 -0.84839,-7.54057 -1.80607,-15.07548 -2.11974,-22.66363 -0.82815,-10.51139 -1.1766,-21.06002 -2.44893,-31.53435 -2.54078,-20.09426 -5.7604,-40.10443 -7.75673,-60.26652 -0.72428,-8.73088 -1.39522,-15.33838 -1.65096,-24.05414 -0.43829,-14.93703 0.71319,-29.85708 1.74755,-44.74426 0.62158,-7.31652 1.4848,-17.72415 2.18896,-25.00337 1.64732,-17.02922 3.62618,-34.02567 5.34812,-51.047271 0.42252,-3.561842 0.81066,-7.127931 1.26756,-10.685526 1.04241,-8.116617 2.36092,-16.201625 3.16053,-24.348862 z" />
        <path
           style="fill:#000000;fill-opacity:1;stroke:#000000;stroke-width:2.4378"
           id="path7-2-3"
           d="m 263.2469,48.831887 c -0.0818,1.077477 -0.19501,2.15303 -0.24543,3.232432 -0.58546,12.534093 -0.61781,25.086889 -0.80942,37.629439 -0.0738,4.829915 -0.20167,9.658853 -0.3025,14.488282 -0.7135,34.09966 -2.94865,68.137 -5.03154,102.17236 -1.16408,20.8183 -2.76306,41.62028 -3.40958,62.46513 -0.11607,3.74223 -0.15998,7.48635 -0.23997,11.22953 -0.0687,10.79373 -0.57542,21.59613 -0.17738,32.38951 0.10425,2.82703 0.39913,6.97428 0.59173,9.86524 0.45431,7.32706 1.29286,14.6182 2.3279,21.88271 0.69142,4.85379 1.57485,9.68199 2.45707,14.50537 0.33544,1.70354 0.65639,3.40896 1.01316,5.10816 0,0 13.29617,6.3853 13.29617,6.3853 v 0 c -0.45427,-1.6816 -0.78438,-3.38065 -1.1318,-5.08765 -0.955,-4.85631 -1.97642,-9.70226 -2.75492,-14.59115 -1.17194,-7.27956 -2.02414,-14.59728 -2.65998,-21.94353 -1.48016,-14.23664 -2.08614,-28.53219 -1.8942,-42.84875 0.0591,-3.74382 0.072,-7.48865 0.17715,-11.23146 0.13224,-4.70556 0.77793,-18.235 0.95729,-22.93335 0.50945,-13.34516 0.78578,-26.69912 1.43694,-40.03909 0.5703,-13.07089 0.85672,-20.59806 1.61077,-33.80217 0.68912,-12.06721 1.66065,-24.11737 2.32826,-36.1858 0.58993,-10.66417 0.76176,-21.34902 1.48677,-32.00692 0.41277,-9.31239 0.74956,-17.74791 1.29642,-27.019395 0.4667,-7.912293 0.94762,-15.891345 2.14737,-23.736391 0.15234,-0.996141 0.39408,-1.976542 0.59112,-2.964812 z" />
        <path
           style="fill:#000000;fill-opacity:1;stroke:#000000;stroke-width:2.4378"
           id="path12-3-1"
           d="m 47.375525,275.61777 c 14.241529,-2.308 28.63736,-3.55684 42.983446,-5.03187 17.100999,-1.5177 34.143849,-3.56511 51.180279,-5.66882 18.03513,-2.15772 36.16349,-3.39576 54.2792,-4.64435 14.88404,-1.32265 29.78992,-2.33582 44.72033,-2.92917 16.13768,-0.50324 32.2841,-0.56305 48.42795,-0.48377 13.09668,-0.11487 26.16059,0.84375 39.22538,1.59405 11.88369,0.55161 23.65712,1.5937 35.35297,3.78521 6.80263,1.56744 13.51286,3.48281 20.30484,5.10366 4.67889,1.17357 2.41524,0.57082 6.79383,1.79727 0,0 -11.37405,-8.72981 -11.37405,-8.72981 v 0 c -4.30687,-1.11194 -2.07558,-0.55031 -6.69534,-1.67908 -6.79377,-1.69206 -13.50835,-3.72094 -20.38726,-5.04021 -11.50914,-1.75177 -23.12326,-2.48046 -34.73871,-3.15331 -13.02746,-0.99613 -26.07051,-1.8825 -39.14702,-1.42563 -16.2521,0.10078 -32.50619,-0.0481 -48.75562,0.30833 -6.1891,0.22446 -6.74089,0.18848 -12.81816,0.62397 -10.46669,0.75004 -20.89324,1.98235 -31.35851,2.75287 -18.26821,1.42216 -36.57439,2.40033 -54.79761,4.36115 -16.80251,2.19268 -33.577408,4.64258 -50.463739,6.13052 -14.915292,1.36966 -29.843704,2.64221 -44.784176,3.69471 z" />
      </g>
      <path
         style="fill:#a10e30;fill-opacity:1;stroke:#a10e30;stroke-width:1.00157;stroke-dasharray:none;stroke-opacity:1"
         id="path19-3-9"
         d="m 201.64213,55.188193 c -0.86766,0.392762 -3.31834,1.473976 -3.99149,1.916064 -3.42415,2.248799 -6.40933,5.542226 -8.8227,8.808055 -1.1309,1.530352 -2.11133,3.166364 -3.167,4.749546 -4.02217,6.311266 -7.14684,13.153635 -9.26159,20.333295 -1.17681,3.995332 -1.43931,5.770769 -2.24254,9.803837 -0.16934,1.56836 -0.46787,3.12812 -0.50802,4.70509 -0.13359,5.24722 1.01854,10.61022 4.548,14.69541 5.07191,5.8705 17.87203,10.95919 22.28913,13.28641 2.3838,0.27094 4.75287,0.75849 7.1514,0.81284 7.11059,0.16112 15.07833,-1.32648 21.55117,-4.30342 5.03798,-2.31703 6.58152,-3.89161 10.86268,-7.21114 4.53226,-4.40748 9.39619,-8.92466 12.25014,-14.68476 0.54499,-1.09995 1.09076,-2.2239 1.36455,-3.42053 0.31474,-1.37562 0.25515,-2.81078 0.38272,-4.21617 -0.28555,-1.712232 -0.38306,-3.466668 -0.85665,-5.136695 -0.61991,-2.186007 -1.48439,-4.30114 -2.40842,-6.376974 -3.20467,-7.199288 -7.50834,-13.180677 -13.22582,-18.60838 -1.7284,-1.640803 -3.66332,-3.049343 -5.49498,-4.574015 -1.67437,-1.163768 -3.34875,-2.327536 -5.02312,-3.491304 0,0 -12.69217,-4.974922 -12.69217,-4.974922 v 0 c 1.75971,1.155666 3.51942,2.311332 5.27913,3.466997 1.88539,1.485021 3.87392,2.847706 5.65615,4.455064 7.17121,6.467567 12.78758,14.62686 15.39917,23.990787 0.42867,1.537008 0.53854,3.145566 0.80781,4.718349 -0.0952,1.269816 -0.0226,2.563533 -0.2857,3.809447 -0.23916,1.132714 -0.71919,2.206611 -1.20626,3.256846 -2.61972,5.64877 -7.06597,10.25853 -11.48297,14.51918 -4.12387,3.2287 -5.57472,4.74993 -10.4636,6.95892 -6.38505,2.88503 -14.15289,4.26129 -21.14316,3.79449 -2.38833,-0.15949 -4.71978,-0.8011 -7.07967,-1.20165 1.91711,1.41377 3.77985,2.90443 5.75134,4.24133 1.63577,1.10925 -3.36436,-2.14177 -4.74323,-3.55771 -4.8384,-4.96851 -5.20064,-11.93314 -4.36382,-18.38463 0.7442,-4.1315 0.90881,-5.60299 2.06518,-9.698171 1.99811,-7.076092 4.96068,-13.864493 8.98988,-20.023489 3.47273,-4.793633 6.88902,-9.621583 12.22865,-12.517898 1.42381,-0.772297 2.59713,-1.042358 4.10162,-1.481303 z" />
      <path
         style="fill:#000000;fill-opacity:1;stroke:#000000;stroke-width:2.4378;stroke-opacity:1"
         id="path14-4-8"
         d="m 371.35452,51.226912 c -7.1013,6.93613 -13.71691,14.33599 -20.40226,21.66672 -9.83485,10.07098 -19.03108,20.75005 -29.02464,30.664238 -3.04689,2.84649 -6.24878,5.50904 -9.51839,8.09201 0,0 12.1295,7.5818 12.1295,7.5818 v 0 c 3.11586,-2.76003 6.19386,-5.56142 9.17313,-8.46982 3.04834,-3.20779 4.91572,-5.12246 7.90016,-8.48282 6.75461,-7.605418 13.31688,-15.389058 20.57604,-22.533398 1.94778,-1.93777 3.90766,-3.86347 5.84335,-5.81332 5.12413,-5.1616 10.08966,-10.51607 15.98494,-14.82982 z" />
      <path
         style="fill:#000000;fill-opacity:1;stroke:#000000;stroke-width:2.4378;stroke-opacity:1"
         id="path15-1-6"
         d="m 299.42262,58.603472 c 9.98103,9.94224 19.4286,20.41382 28.84909,30.8849 8.23402,9.3145 16.4169,18.699698 25.56752,27.134548 1.87601,1.71604 3.93783,3.20371 6.05989,4.59515 0,0 13.83889,5.33634 13.83889,5.33634 v 0 c -2.38292,-1.30157 -4.63203,-2.85786 -6.73855,-4.56984 -9.72613,-8.37104 -18.31792,-17.92891 -26.84197,-27.496378 -8.98758,-10.07482 -18.09178,-20.04523 -26.99631,-30.19402 z" />
      <path
         style="fill:#000000;fill-opacity:1;stroke:#000000;stroke-width:2.4378;stroke-opacity:1"
         id="path20-1-5"
         d="m 114.40031,48.599907 c -13.96369,13.993196 -28.663789,27.218867 -42.842019,40.989999 -3.134233,3.044239 -6.217298,6.140719 -9.325947,9.211078 -10.008707,10.073956 -5.263583,5.304226 -14.233481,14.311056 0,0 11.095233,6.75186 11.095233,6.75186 v 0 c 8.322617,-9.39505 3.876274,-4.45356 13.368007,-14.79835 3.03147,-3.10685 6.013427,-6.262791 9.094411,-9.320546 6.581598,-6.531976 13.874005,-13.339245 20.784336,-19.514261 6.52824,-5.833581 12.1709,-10.700008 19.03023,-16.019607 1.73584,-1.34619 3.56137,-2.572561 5.34205,-3.858842 z" />
      <path
         style="fill:#a10e30;fill-opacity:1;stroke:#a10e30;stroke-width:1.00157;stroke-dasharray:none;stroke-opacity:1"
         id="path23-0"
         d="m 574.68883,282.97144 c -5.16673,2.3938 -9.27009,6.3673 -12.815,10.72985 -3.65294,5.17602 -5.91433,11.05093 -7.43579,17.15487 -1.45487,6.07422 0.0352,11.30875 2.45981,16.84732 2.15322,4.7372 5.29828,8.80913 9.0182,12.40124 6.95243,6.28807 15.16778,11.63317 24.18593,14.33759 2.45208,0.56348 4.97641,1.083 7.48338,0.51217 1.09227,-0.2487 2.81041,-0.96679 3.82876,-1.36446 3.57885,-1.62542 6.95149,-3.70744 10.10563,-6.04876 1.77314,-1.50927 2.8072,-3.59801 4.07203,-5.50198 0.39443,-0.59374 0.81236,-1.17152 1.21854,-1.75728 0.4507,-0.68319 0.9014,-1.36637 1.3521,-2.04956 2.36679,-3.94315 4.51112,-8.02235 5.84722,-12.43209 0.903,-4.58847 0.99116,-9.28957 1.10069,-13.95085 0.24587,-4.64265 -0.19777,-8.98348 -1.60504,-13.41367 -0.51975,-1.37465 -0.77589,-2.26555 -1.54298,-3.50849 -0.41367,-0.67027 -1.58232,-2.18488 -2.27178,-2.61217 -12.91395,-8.00355 -9.237,-6.55396 -15.90727,-8.96998 -3.12379,-1.11662 -6.40328,-1.9165 -9.6831,-2.43278 -3.78941,-0.40293 -7.62228,-0.64646 -11.42807,-0.39238 -1.94698,0.0569 -3.85733,0.44698 -5.76879,0.78238 0,0 12.13393,8.5041 12.13393,8.5041 v 0 c 1.86526,-0.31368 3.73461,-0.62502 5.63243,-0.65 3.76741,-0.0777 7.55669,0.0734 11.27891,0.69485 3.21049,0.66618 6.44439,1.36857 9.46715,2.67055 5.03705,2.40985 5.10031,2.49752 -9.4659,-5.78654 -0.48322,-0.27481 0.90733,0.64592 1.32462,1.01319 1.38524,1.21921 2.30732,2.68788 2.884,4.44185 1.65718,4.33667 2.02644,8.31414 1.79355,12.93242 -0.0147,4.54024 -0.0378,9.12266 -0.92228,13.59307 -1.2022,4.29929 -3.23172,8.27142 -5.55203,12.07578 -0.45699,0.66479 -0.91398,1.32959 -1.37098,1.99438 -0.43477,0.59613 -0.88356,1.1823 -1.30432,1.7884 -1.20198,1.73144 -2.1553,3.66671 -3.82017,5.02641 -3.04825,2.25273 -6.28506,4.30645 -9.81019,5.72977 -4.17241,1.39495 -6.4874,1.36517 -10.72673,0.0573 -4.95541,-1.81578 -12.76306,-6.64821 6.6069,4.50624 0.69388,0.39958 -1.38491,-0.80814 -2.03861,-1.27053 -0.61502,-0.43503 -1.18509,-0.93087 -1.76069,-1.41687 -0.57996,-0.48968 -1.1367,-1.00623 -1.70504,-1.50935 -3.78723,-3.4263 -7.11253,-7.22374 -9.30351,-11.89892 -2.55788,-5.37004 -4.26771,-9.93745 -2.91252,-15.98853 1.34512,-5.93866 3.48069,-11.63386 7.08119,-16.60705 3.42255,-4.27194 7.50341,-8.00608 12.70787,-9.97052 z"
         transform="translate(-387.59462,0.35014351)" />
      <path
         style="fill:#000000;fill-opacity:1;stroke:#000000;stroke-width:2.4378;stroke-opacity:1"
         id="path21-3-2"
         d="m 43.907164,55.091277 c 2.083438,1.739344 4.13041,3.523323 6.250312,5.218033 12.212621,9.763118 24.967567,18.83085 37.535499,28.123581 8.631216,6.381923 16.586575,12.334369 25.158205,18.733149 0,0 10.76608,4.27312 10.76608,4.27312 v 0 C 110.30162,101.68103 96.970911,91.93786 83.785656,82.003597 76.950052,76.853398 69.095935,70.928232 62.476693,65.31271 60.67095,63.780785 58.979538,62.118981 57.23096,60.522116 Z" />
      <path
         style="fill:#000000;fill-opacity:1;stroke:#000000;stroke-width:1.00157;stroke-dasharray:none;stroke-opacity:1"
         id="path26"
         d="m 1007.2897,164.55796 c -11.2636,10.22433 -22.93839,19.99258 -34.46409,29.92043 -8.01557,7.17928 -15.85502,14.54606 -24.01946,21.55684 0,0 12.21352,7.58978 12.21352,7.58978 v 0 c 7.93795,-7.19597 15.60773,-14.67882 23.63903,-21.77267 11.64267,-10.00243 23.4288,-19.8368 35.3571,-29.49583 z"
         transform="translate(-790.06643,8.1055218)" />
      <path
         style="fill:#000000;fill-opacity:1;stroke:#000000;stroke-width:1.00157;stroke-dasharray:none;stroke-opacity:1"
         id="path27"
         d="m 952.93811,174.63311 c 16.67361,14.54739 36.13786,25.73582 56.34289,34.63405 3.8253,1.68461 7.7329,3.17546 11.5994,4.76319 3.3367,1.22857 6.6735,2.45715 10.0102,3.68572 0,0 -10.9172,-8.53441 -10.9172,-8.53441 v 0 c -3.2659,-1.19557 -6.5317,-2.39114 -9.7976,-3.58672 -18.91055,-7.81489 -4.128,-1.46577 -23.75548,-10.61072 -0.0433,-0.0202 0.0357,0.16955 -0.004,0.14331 -6.93496,-4.55533 -13.74926,-9.19042 -19.80609,-14.89528 z"
         transform="translate(-790.06643,8.1055218)" />
    </g>
    <path
       style="fill:#eaee2d;fill-opacity:1;stroke:#eaee2d;stroke-width:1.00157;stroke-dasharray:none;stroke-opacity:1"
       id="path34"
       d="m 607.35512,221.5707 c 6.65398,-1.77076 13.23485,-3.72201 19.77279,-5.88341 6.5941,-2.07807 13.19681,-4.10898 19.86571,-5.93358 8.69193,-1.89483 17.37336,-3.83659 26.10563,-5.53811 12.86554,-2.67691 26.02968,-3.48765 39.09641,-4.62568 12.54842,-1.11871 25.13584,-1.62247 37.70419,-2.44474 9.63272,-0.75236 19.30002,-0.70462 28.94278,-1.20378 10.88781,-0.61649 21.78916,-0.93196 32.69233,-1.08875 12.80619,-0.14043 25.61214,-0.27137 38.41902,-0.32997 14.46506,0.2991 28.96626,0.35343 43.36309,1.9081 10.19127,0.74679 20.18628,2.73086 30.06713,5.24965 7.18795,1.83736 14.31764,4.12309 20.95538,7.46834 0.73794,0.33699 1.47589,0.67398 2.21383,1.01096 0,0 -11.61009,-9.22583 -11.61009,-9.22583 v 0 c -0.7247,-0.33637 -1.4494,-0.67275 -2.1741,-1.00912 -6.72452,-3.06184 -13.76599,-5.34111 -20.94407,-7.08464 -9.9192,-2.4492 -19.96664,-4.24567 -30.16363,-5.062 -14.27227,-1.40298 -28.64636,-1.01591 -42.96701,-1.43555 -12.98679,-0.0529 -25.97776,-0.29461 -38.96292,-0.0296 -10.89256,0.27938 -21.78236,0.63365 -32.66659,1.15136 -9.64404,0.36095 -19.30101,0.47773 -28.92547,1.2557 -12.49652,0.85138 -25.01094,1.42994 -37.4818,2.63549 -13.18724,1.09088 -26.47411,1.86121 -39.45473,4.5655 -8.79972,1.75143 -17.59465,3.53403 -26.35072,5.49342 -6.67273,1.79256 -13.2117,4.00658 -19.80585,6.06271 -6.60001,2.11075 -13.24326,4.06465 -20.00404,5.60071 z" />
    <path
       style="fill:#eaee2d;fill-opacity:1;stroke:#eaee2d;stroke-width:1.00157;stroke-dasharray:none;stroke-opacity:1"
       id="path35"
       d="m 909.4428,225.8921 c 5.23085,-0.41311 10.25872,-1.74301 15.14162,-3.61182 3.99772,-1.41972 7.81652,-3.32231 11.34368,-5.67522 2.96287,-1.94595 6.02276,-3.71444 9.1067,-5.45652 4.24658,-2.6052 4.70632,-5.12243 3.64408,-9.78704 -1.18958,-4.18473 -2.8337,-8.21293 -4.81853,-12.07825 -1.044,-1.8632 -1.82478,-3.854 -2.64567,-5.82041 0,0 -13.49825,-6.21605 -13.49825,-6.21605 v 0 c 0.83699,1.98989 1.54018,4.03944 2.58614,5.93411 2.01928,3.76808 3.74858,7.6672 4.97118,11.77327 1.27811,4.33879 1.32006,5.56974 -2.71732,8.07154 -3.11694,1.74866 -6.20339,3.55042 -9.17953,5.53225 -3.46996,2.24956 -7.18514,4.06361 -11.08486,5.44744 -4.85435,1.77603 -9.852,2.96653 -15.03395,3.23836 z" />
    <path
       style="fill:#eaee2d;fill-opacity:1;stroke:#eaee2d;stroke-width:1.00157;stroke-dasharray:none;stroke-opacity:1"
       id="path36"
       d="m 1116.644,328.94753 c 8.2077,2.37544 16.1809,5.45309 24.1749,8.45025 6.5695,2.56946 13.317,4.65517 19.9747,6.98511 5.1558,1.74464 10.2451,3.65003 15.4077,5.37632 4.6159,1.5566 9.2506,3.03231 13.9876,4.18153 5.1955,0.9682 10.4721,1.14863 15.6933,1.93003 9.7984,1.13566 19.6654,1.51169 29.5159,1.89967 8.9309,0.36139 17.8662,0.11536 26.7992,0.32834 14.2505,0.63236 28.5094,0.81147 42.7711,0.95336 13.6582,0.0764 27.3162,0.17942 40.9742,0.28132 1.3075,0.008 2.6153,0.0527 3.9225,0.0237 3.9542,-0.0877 7.8694,-0.44663 11.8174,-0.69629 9.2494,-0.58489 18.5086,-0.98257 27.7617,-1.50335 10.7386,-0.41094 21.4583,-1.37294 31.8853,-4.02859 3.7321,-1.0911 7.2523,-2.69974 10.6494,-4.56767 2.0479,-0.99899 1.0185,-0.5412 3.0862,-1.37794 0,0 -12.4092,-8.27645 -12.4092,-8.27645 v 0 c -2.1168,0.93783 -1.0642,0.43961 -3.1568,1.49668 -3.3159,1.74526 -6.7262,3.30675 -10.3368,4.34996 -10.152,2.6978 -20.6115,3.73323 -31.0889,4.24116 -14.6248,0.84437 -29.2715,1.57208 -43.9201,1.77209 -13.5359,0.0838 -27.0723,0.13115 -40.6079,-0.0333 -14.3186,-0.17388 -28.632,-0.55239 -42.9412,-1.10363 -8.9933,-0.25213 -17.9894,-0.26142 -26.9835,-0.47995 -9.8643,-0.30837 -19.7506,-0.70844 -29.531,-2.11004 -5.2276,-0.73976 -10.5305,-0.93166 -15.6888,-2.11958 -4.6739,-1.23906 -9.2814,-2.67689 -13.862,-4.22445 -5.1559,-1.73085 -10.2201,-3.70779 -15.3946,-5.38402 -6.6244,-2.26181 -13.3063,-4.37139 -19.8293,-6.91614 -8.0878,-2.99585 -16.1624,-6.03338 -24.4219,-8.53358 z" />
  </g>
</svg>
